<svg xmlns="http://www.w3.org/2000/svg" viewBox="0 0 283.46 141.73"><defs><style>.cls-1{fill:#fff;}</style></defs><g id="Capa_2" data-name="Capa 2"><rect class="cls-1" x="27.53" y="47.58" width="7.69" height="37.28" transform="translate(62.75 132.44) rotate(180)"/><rect class="cls-1" x="13.77" y="63.4" width="7.69" height="35.24" transform="translate(98.64 63.4) rotate(90)"/><path class="cls-1" d="M67.43,62.66l-.06-28.79L53.1,57.69H49.5L35.23,34.24V62.66h-7.7V19.22h6.64L51.42,48,68.36,19.22H75l.06,43.44Z"/><path class="cls-1" d="M78.52,82.57v2.29h-11V70.16H78.22v2.29h-8v3.82h7.1v2.25h-7.1v4Z"/><path class="cls-1" d="M92.59,82.57v2.29h-11V70.16H92.29v2.29h-8v3.82h7.1v2.25h-7.1v4Z"/><path class="cls-1" d="M98.62,72.47H93.74V70.16h12.48v2.31h-4.87V84.86H98.62Z"/><path class="cls-1" d="M108.28,70.16H111v14.7h-2.73Z"/><path class="cls-1" d="M128,70.16v14.7h-2.24l-8.11-10v10H115V70.16h2.25l8.1,10v-10Z"/><path class="cls-1" d="M142,77.34h2.58V83.2a9.28,9.28,0,0,1-5.75,1.87c-4.56,0-7.92-3.17-7.92-7.56s3.36-7.56,8-7.56a7.57,7.57,0,0,1,5.9,2.4L143.07,74a5.45,5.45,0,0,0-4-1.68,5.17,5.17,0,1,0,0,10.33,5.9,5.9,0,0,0,3-.76Z"/><path class="cls-1" d="M114.16,35c0,9.36-6.93,15.14-18.13,15.14H86.42V62.41h-7.9V19.83H96C107.23,19.83,114.16,25.55,114.16,35Zm-8,0c0-5.36-3.59-8.46-10.52-8.46H86.42V43.43h9.25C102.6,43.43,106.19,40.33,106.19,35Z"/><path class="cls-1" d="M119.64,41.12c0-12.59,9.73-21.9,22.93-21.9s22.93,9.25,22.93,21.9S155.77,63,142.57,63,119.64,53.71,119.64,41.12Zm37.9,0a15,15,0,0,0-29.93,0,15,15,0,0,0,29.93,0Z"/><path class="cls-1" d="M173.9,19.83h7.91V62.41H173.9Z"/><path class="cls-1" d="M231.14,19.83V62.41h-6.51L201.15,33.58V62.41h-7.84V19.83h6.51l23.47,28.83V19.83Z"/><path class="cls-1" d="M251.22,26.52H237.11V19.83h36.13v6.69H259.13V62.41h-7.91Z"/><rect class="cls-1" x="272.15" y="19.83" width="11.31" height="6.69"/></g></svg>